<svg xmlns="http://www.w3.org/2000/svg" width="121.062" height="53.136" viewBox="0 0 121.062 53.136">
  <defs>
    <style>
      .cls-1 {
        fill: #11131a;
      }
    </style>
  </defs>
  <g id="Group_5" data-name="Group 5" transform="translate(-843 -488)">
    <g id="Group_4" data-name="Group 4" transform="translate(843 488)">
      <g id="Group_2" data-name="Group 2" transform="translate(0)">
        <path id="Path_1" data-name="Path 1" class="cls-1" d="M192.609,208.538h.578v6.382h-.578a4.886,4.886,0,0,0-.873-1.921,7.837,7.837,0,0,1-6.139,2.714,8.748,8.748,0,0,1-6.455-2.5,8.919,8.919,0,0,1-2.506-6.61,11.519,11.519,0,0,1,1.155-5.086,7.809,7.809,0,0,1,3.224-3.54,9.155,9.155,0,0,1,4.541-1.156,8.086,8.086,0,0,1,3.7.84,7.412,7.412,0,0,1,2.478,1.861,6.66,6.66,0,0,0,.7-2.365h.591l.161,6.906h-.578q-.6-3.681-2.465-5.119a6.69,6.69,0,0,0-4.2-1.437,5.332,5.332,0,0,0-4.548,2.324,11.206,11.206,0,0,0-1.686,6.65,9.491,9.491,0,0,0,1.84,6.28,5.753,5.753,0,0,0,4.581,2.184,7.075,7.075,0,0,0,3-.712,5.225,5.225,0,0,0,2.425-2.412A9.046,9.046,0,0,0,192.609,208.538Z" transform="translate(-156.953 -196.823)"/>
        <path id="Path_2" data-name="Path 2" class="cls-1" d="M214.683,216.7a5.75,5.75,0,0,1,1.693-4.226,5.961,5.961,0,0,1,8.343.007,5.754,5.754,0,0,1,1.693,4.218,5.665,5.665,0,0,1-1.72,4.373,5.893,5.893,0,0,1-4.151,1.592,5.813,5.813,0,0,1-4.145-1.619A5.7,5.7,0,0,1,214.683,216.7Zm2.23.067a6.661,6.661,0,0,0,.954,4.1,3.65,3.65,0,0,0,5.367,0,6.776,6.776,0,0,0,.933-4.1,7.058,7.058,0,0,0-.927-4.138,3.567,3.567,0,0,0-5.394-.007A7.007,7.007,0,0,0,216.913,216.763Z" transform="translate(-175.614 -203.664)"/>
        <path id="Path_3" data-name="Path 3" class="cls-1" d="M244.169,196.981v14.7q0,1.76.047,2.217a.933.933,0,0,0,.383.7,2.15,2.15,0,0,0,1.2.241h.323v.618h-5.885v-.618h.377a2.214,2.214,0,0,0,1.149-.222.886.886,0,0,0,.409-.625,21.545,21.545,0,0,0,.067-2.311V200.8a4.691,4.691,0,0,0-.309-2.183q-.31-.45-1.5-.45v-.618a11.742,11.742,0,0,0,1.928-.188,7.085,7.085,0,0,0,1.525-.377Z" transform="translate(-188.145 -196.9)"/>
        <path id="Path_4" data-name="Path 4" class="cls-1" d="M257.115,196.981v14.7q0,1.76.047,2.217a.936.936,0,0,0,.383.7,2.152,2.152,0,0,0,1.2.241h.323v.618h-5.885v-.618h.376a2.211,2.211,0,0,0,1.149-.222.887.887,0,0,0,.41-.625,21.751,21.751,0,0,0,.067-2.311V200.8a4.692,4.692,0,0,0-.309-2.183q-.309-.45-1.5-.45v-.618a11.742,11.742,0,0,0,1.928-.188,7.084,7.084,0,0,0,1.525-.377Z" transform="translate(-194.495 -196.9)"/>
        <path id="Path_5" data-name="Path 5" class="cls-1" d="M277.557,214.936h-7.672q-.053.793-.053,1.183a8.376,8.376,0,0,0,.907,4.359,2.981,2.981,0,0,0,2.707,1.458,3.544,3.544,0,0,0,3.466-2.19h.645a3.756,3.756,0,0,1-1.706,2.143,5.344,5.344,0,0,1-5.421.067,5.638,5.638,0,0,1-2.036-1.995,5.869,5.869,0,0,1-.792-3.131,6.291,6.291,0,0,1,1.531-4.333,4.908,4.908,0,0,1,3.829-1.726,4.264,4.264,0,0,1,3.345,1.317A4.5,4.5,0,0,1,277.557,214.936Zm-2.352-.537a4.289,4.289,0,0,0,.04-.551,2.307,2.307,0,0,0-2.391-2.485q-2.445,0-2.916,3.036Z" transform="translate(-201.569 -203.664)"/>
        <path id="Path_6" data-name="Path 6" class="cls-1" d="M299.378,212.182a3.18,3.18,0,0,1,2.311-1.29,1.369,1.369,0,0,1,1,.349,1.058,1.058,0,0,1,.356.766q0,.887-.806.887a.914.914,0,0,1-.766-.551q-.3-.511-.618-.511a1.661,1.661,0,0,0-1.128.7,4.291,4.291,0,0,1,.7,2.337,4.047,4.047,0,0,1-1.156,2.848,5.387,5.387,0,0,1-3.9,1.344q-2.849.094-2.848,1.156,0,.5.645.7a12.268,12.268,0,0,0,2.66.323,18.391,18.391,0,0,1,3.412.409,3.4,3.4,0,0,1,1.908,1.216,3.6,3.6,0,0,1-.739,5.038,6.875,6.875,0,0,1-4.178,1.088,7.315,7.315,0,0,1-4-.967,2.845,2.845,0,0,1-1.5-2.445,2.051,2.051,0,0,1,.43-1.344,1.493,1.493,0,0,1,1.223-.524,1.063,1.063,0,0,1,.389.067,2.841,2.841,0,0,0-.833,1.935,2.308,2.308,0,0,0,1.108,1.955,5.81,5.81,0,0,0,3.311.772,5.167,5.167,0,0,0,3.057-.786,2.379,2.379,0,0,0,1.095-2.008,1.991,1.991,0,0,0-.981-1.894,8.729,8.729,0,0,0-3.493-.645,8.239,8.239,0,0,1-3.749-.712,1.735,1.735,0,0,1-.86-1.491q0-1.759,2.458-2.216a5.777,5.777,0,0,1-1.921-1.72,3.817,3.817,0,0,1-.645-2.163,3.683,3.683,0,0,1,1.323-2.855,4.568,4.568,0,0,1,3.137-1.175A4.765,4.765,0,0,1,299.378,212.182Zm-6.046,2.929a3.771,3.771,0,0,0,.712,2.539,2.382,2.382,0,0,0,3.567.007,4.1,4.1,0,0,0,.732-2.774,3.765,3.765,0,0,0-.78-2.741,2.47,2.47,0,0,0-1.76-.753,2.079,2.079,0,0,0-1.854.927A5.086,5.086,0,0,0,293.332,215.111Z" transform="translate(-212.911 -203.664)"/>
        <path id="Path_7" data-name="Path 7" class="cls-1" d="M326.494,214.936h-7.672q-.054.793-.054,1.183a8.381,8.381,0,0,0,.907,4.359,2.981,2.981,0,0,0,2.707,1.458,3.545,3.545,0,0,0,3.466-2.19h.645a3.755,3.755,0,0,1-1.706,2.143,5.344,5.344,0,0,1-5.421.067,5.638,5.638,0,0,1-2.036-1.995,5.87,5.87,0,0,1-.793-3.131,6.289,6.289,0,0,1,1.532-4.333,4.908,4.908,0,0,1,3.829-1.726,4.264,4.264,0,0,1,3.345,1.317A4.5,4.5,0,0,1,326.494,214.936Zm-2.351-.537a4.294,4.294,0,0,0,.04-.551,2.307,2.307,0,0,0-2.391-2.485q-2.446,0-2.916,3.036Z" transform="translate(-225.571 -203.664)"/>
        <path id="Path_8" data-name="Path 8" class="cls-1" d="M153.981,275.538h.578v6.382h-.578a4.892,4.892,0,0,0-.873-1.921,7.839,7.839,0,0,1-6.14,2.714,8.748,8.748,0,0,1-6.455-2.5,8.92,8.92,0,0,1-2.506-6.61,11.519,11.519,0,0,1,1.155-5.086,7.81,7.81,0,0,1,3.225-3.54,9.154,9.154,0,0,1,4.541-1.156,8.084,8.084,0,0,1,3.7.84,7.419,7.419,0,0,1,2.479,1.861,6.667,6.667,0,0,0,.7-2.365h.591l.161,6.906h-.578q-.6-3.681-2.465-5.119a6.693,6.693,0,0,0-4.2-1.437,5.332,5.332,0,0,0-4.548,2.324,11.206,11.206,0,0,0-1.686,6.65,9.491,9.491,0,0,0,1.84,6.28,5.753,5.753,0,0,0,4.581,2.184,7.074,7.074,0,0,0,3-.712,5.225,5.225,0,0,0,2.425-2.412A9.047,9.047,0,0,0,153.981,275.538Z" transform="translate(-138.007 -229.684)"/>
        <path id="Path_9" data-name="Path 9" class="cls-1" d="M176.055,283.7a5.75,5.75,0,0,1,1.693-4.226,5.961,5.961,0,0,1,8.343.007,5.754,5.754,0,0,1,1.693,4.218,5.665,5.665,0,0,1-1.72,4.373,5.893,5.893,0,0,1-4.151,1.592,5.813,5.813,0,0,1-4.145-1.619A5.7,5.7,0,0,1,176.055,283.7Zm2.23.067a6.661,6.661,0,0,0,.954,4.1,3.65,3.65,0,0,0,5.367,0,6.772,6.772,0,0,0,.933-4.1,7.058,7.058,0,0,0-.927-4.138,3.567,3.567,0,0,0-5.394-.007A7.007,7.007,0,0,0,178.285,283.763Z" transform="translate(-156.668 -236.525)"/>
        <path id="Path_10" data-name="Path 10" class="cls-1" d="M206.2,290.088h-.779l-3.91-8.827a6.726,6.726,0,0,0-.914-1.625,1.559,1.559,0,0,0-1.1-.377v-.618h4.971v.618a3.136,3.136,0,0,0-1.121.135.507.507,0,0,0-.3.511,5.143,5.143,0,0,0,.538,1.437l2.969,6.677,2.674-5.952a6.371,6.371,0,0,0,.631-1.854q0-.9-1.344-.954v-.618h3.708v.618a1.6,1.6,0,0,0-1.148.571,11.287,11.287,0,0,0-1.3,2.385Z" transform="translate(-168.165 -236.953)"/>
        <path id="Path_11" data-name="Path 11" class="cls-1" d="M229.154,271.007v7.672q0,1.76.054,2.217a.956.956,0,0,0,.39.7,2.152,2.152,0,0,0,1.2.241h.282v.618H225.15v-.618h.457a1.913,1.913,0,0,0,1.243-.276,1.069,1.069,0,0,0,.336-.658q.047-.383.046-2.223v-3.332a8.633,8.633,0,0,0-.181-2.365.883.883,0,0,0-.484-.537,3.545,3.545,0,0,0-1.055-.108h-.363v-.618a16.415,16.415,0,0,0,3.708-.712Zm-2.593-5.616a1.366,1.366,0,0,1,.41-.994,1.334,1.334,0,0,1,.987-.417,1.313,1.313,0,0,1,.981.417,1.38,1.38,0,0,1,.4.994,1.4,1.4,0,0,1-.4,1.008,1.315,1.315,0,0,1-.981.416,1.335,1.335,0,0,1-.987-.416A1.384,1.384,0,0,1,226.561,265.392Z" transform="translate(-180.748 -229.762)"/>
        <path id="Path_12" data-name="Path 12" class="cls-1" d="M249.082,272.62v-4.3q0-1.76-.047-2.217a.935.935,0,0,0-.383-.7,2.149,2.149,0,0,0-1.2-.242h-.282v-.618a15.138,15.138,0,0,0,3.56-.565h.282v14.792a22.226,22.226,0,0,0,.067,2.338.825.825,0,0,0,.423.618,2.977,2.977,0,0,0,1.323.2v.618a19.5,19.5,0,0,0-3.466.349,8.811,8.811,0,0,1-.161-1.988,7.375,7.375,0,0,1-2.048,1.491,5.078,5.078,0,0,1-2.183.5,4.809,4.809,0,0,1-3.688-1.72,6.555,6.555,0,0,1,.034-8.511,5.044,5.044,0,0,1,3.775-1.659,5.556,5.556,0,0,1,2.109.4A6.336,6.336,0,0,1,249.082,272.62Zm0,.779a6.919,6.919,0,0,0-1.78-1.149,4.523,4.523,0,0,0-1.794-.383,3.215,3.215,0,0,0-2.532,1.169,5.776,5.776,0,0,0-1.015,3.815A6.216,6.216,0,0,0,243,280.815a3.2,3.2,0,0,0,2.573,1.276,3.846,3.846,0,0,0,1.894-.484,5.28,5.28,0,0,0,1.612-1.451Z" transform="translate(-187.899 -229.762)"/>
        <path id="Path_13" data-name="Path 13" class="cls-1" d="M286.635,273.961v3.829a23.95,23.95,0,0,0,.1,2.814,1.419,1.419,0,0,0,.544.988,3.029,3.029,0,0,0,1.666.322h.6v.618h-8.343v-.618h.484a3.156,3.156,0,0,0,1.619-.3,1.346,1.346,0,0,0,.571-.92A20.6,20.6,0,0,0,284,277.79v-8.934a19.566,19.566,0,0,0-.121-2.808,1.2,1.2,0,0,0-.538-.873,4.24,4.24,0,0,0-1.8-.242h-.336v-.618l2.284-.081q2.741-.094,4.272-.094a16.4,16.4,0,0,1,4.346.443,5.1,5.1,0,0,1,2.5,1.572,4.2,4.2,0,0,1,.974,2.848,5.138,5.138,0,0,1-.665,2.633,4.275,4.275,0,0,1-1.908,1.733,11.251,11.251,0,0,1-4.373.591Zm0-.672h1.3a8.384,8.384,0,0,0,2.539-.316,3.027,3.027,0,0,0,1.612-1.323,4.519,4.519,0,0,0,.645-2.486,4.387,4.387,0,0,0-1.108-3.312,5.1,5.1,0,0,0-3.594-1.054,13.677,13.677,0,0,0-1.4.053Z" transform="translate(-208.242 -229.84)"/>
        <path id="Path_14" data-name="Path 14" class="cls-1" d="M314.306,263.981v14.7q0,1.76.047,2.217a.936.936,0,0,0,.383.7,2.153,2.153,0,0,0,1.2.241h.323v.618h-5.885v-.618h.376a2.211,2.211,0,0,0,1.149-.222.886.886,0,0,0,.41-.625,21.525,21.525,0,0,0,.067-2.311V267.8a4.682,4.682,0,0,0-.309-2.183q-.309-.45-1.5-.45v-.618a11.737,11.737,0,0,0,1.928-.188,7.086,7.086,0,0,0,1.525-.377Z" transform="translate(-222.545 -229.762)"/>
        <path id="Path_15" data-name="Path 15" class="cls-1" d="M335.9,287.2h.5q-.122,2.3-2.257,2.3a2.062,2.062,0,0,1-1.444-.484,2.421,2.421,0,0,1-.692-1.437,14.034,14.034,0,0,1-2.451,1.437,5.04,5.04,0,0,1-1.982.484,2.979,2.979,0,0,1-1.921-.645,2.076,2.076,0,0,1-.806-1.706,3,3,0,0,1,1.35-2.418,16.623,16.623,0,0,1,3.728-2.015l2.082-.847v-.537a6.546,6.546,0,0,0-.148-1.652,1.693,1.693,0,0,0-.766-.914,2.93,2.93,0,0,0-1.625-.4q-2.015,0-2.244,1.343-.215,1.37-1.129,1.371-.819,0-.82-.779a2.345,2.345,0,0,1,1.088-1.646,6.879,6.879,0,0,1,6.032-.342,2.791,2.791,0,0,1,1.243,1.223,5.483,5.483,0,0,1,.3,2.1v4.447a7.49,7.49,0,0,0,.161,2,.665.665,0,0,0,.7.443Q335.687,288.519,335.9,287.2Zm-3.9-4.7-1.464.591q-3.466,1.411-3.466,3.547a2.022,2.022,0,0,0,.443,1.364,1.45,1.45,0,0,0,1.155.517,3.361,3.361,0,0,0,1.464-.416,10.71,10.71,0,0,0,1.867-1.249Z" transform="translate(-229.645 -236.525)"/>
        <path id="Path_16" data-name="Path 16" class="cls-1" d="M352.6,277.771h.363a7.332,7.332,0,0,1,.349,2.271,7.024,7.024,0,0,1,2.029-1.706,4.661,4.661,0,0,1,2.216-.565,3.86,3.86,0,0,1,2.156.551,2.478,2.478,0,0,1,1.082,1.35,8.543,8.543,0,0,1,.242,2.331v3.439a21.922,21.922,0,0,0,.068,2.324.841.841,0,0,0,.423.624,2.836,2.836,0,0,0,1.31.208v.618h-5.629V288.6h.255a1.94,1.94,0,0,0,1.263-.282,1.041,1.041,0,0,0,.336-.658q.041-.376.04-2.217V281.9a9.4,9.4,0,0,0-.127-1.861,1.748,1.748,0,0,0-.685-.987,2.256,2.256,0,0,0-1.417-.43A3.368,3.368,0,0,0,355,279.2a6.214,6.214,0,0,0-1.687,1.754v4.487a19.942,19.942,0,0,0,.074,2.324.861.861,0,0,0,.43.624,2.877,2.877,0,0,0,1.323.208v.618h-5.562V288.6a3.078,3.078,0,0,0,1.29-.188.828.828,0,0,0,.45-.571,17.435,17.435,0,0,0,.087-2.4v-3.278a20.31,20.31,0,0,0-.073-2.332.864.864,0,0,0-.43-.618,2.9,2.9,0,0,0-1.324-.208v-.618A17.252,17.252,0,0,0,352.6,277.771Z" transform="translate(-241.775 -236.525)"/>
      </g>
      <g id="Group_3" data-name="Group 3" transform="translate(24.584 26.327)">
        <path id="Path_17" data-name="Path 17" class="cls-1" d="M242.052,248.513h2.615q-.164,1.395-4.032,2.219a46.981,46.981,0,0,1-9.59.824q-2.834,0-5.967-.19t-14.412-1.088q-8.337-.666-11.933-.666-8.01,0-9.917,1.924h-2.561q.272-1.543,4.25-2.293a47.752,47.752,0,0,1,8.827-.751q5.231,0,20.76,1.289,8.282.688,11.933.687a34.625,34.625,0,0,0,7.111-.555Q241.615,249.359,242.052,248.513Z" transform="translate(-186.256 -248.492)"/>
      </g>
    </g>
  </g>
</svg>
